<svg width="26" height="30" viewBox="0 0 26 30" fill="none" xmlns="http://www.w3.org/2000/svg">
<g id="Group">
<g id="Group_2">
<g id="Group_3">
<path id="Vector" d="M22.6515 29.5824H3.34848C1.52651 29.5824 0 28.1051 0 26.2339V11.3134C0 10.3286 0.443182 9.39299 1.23106 8.75284L10.8826 0.775568C12.1136 -0.258523 13.8864 -0.258523 15.1174 0.775568L24.7689 8.7036C25.5568 9.34375 26 10.2794 26 11.2642V26.1847C26 28.1051 24.4735 29.5824 22.6515 29.5824ZM13 2.00663C12.7045 2.00663 12.3598 2.10511 12.1136 2.30208L2.46212 10.2794C2.16667 10.5256 1.9697 10.9195 1.9697 11.3134V26.2339C1.9697 26.9725 2.56061 27.6127 3.34848 27.6127H22.6515C23.3902 27.6127 24.0303 27.0218 24.0303 26.2339V11.3134C24.0303 10.9195 23.8333 10.5256 23.5379 10.2794L13.8864 2.30208C13.6402 2.10511 13.2955 2.00663 13 2.00663Z" fill="#202020"/>
</g>
</g>
</g>
</svg>
